<svg id="Capa_1" data-name="Capa 1" xmlns="http://www.w3.org/2000/svg" viewBox="0 0 375.02 344.94"><defs><style>.cls-1{fill:#4a5c4e;}.cls-2{fill:#da5b41;}.cls-3{fill:#65b565;}.cls-4{fill:#a1d5d8;}.cls-5{fill:none;stroke:#e83775;stroke-miterlimit:10;}</style></defs><path class="cls-1" d="M307.54,82.9a60.65,60.65,0,0,0-.7-18.14c30.84,7.57,57.46,26.83,80.67,51.62C360.28,99.93,333.4,86.85,307.54,82.9Z" transform="translate(-12.49 -27.53)"/><path class="cls-2" d="M100.07,350.15,12.49,372.47l22.39-93.13C43.92,311,67.72,340.57,100.07,350.15Z" transform="translate(-12.49 -27.53)"/><path class="cls-2" d="M296.4,76.15a49.22,49.22,0,0,1-3.41,18,136.68,136.68,0,0,0-90.4-37.95C223.4,8.49,296.79,23.91,296.4,76.15Z" transform="translate(-12.49 -27.53)"/><path class="cls-3" d="M193.81,198.15l-122,122a101.64,101.64,0,0,1-6.23-136.85C102.38,209,152,214.66,193.81,198.15Z" transform="translate(-12.49 -27.53)"/><path class="cls-4" d="M287.33,104.56c-19.85,18.39-60.47,65.81-84.95,77C154.87,207.08,92.59,198,54.44,159,83.74,132,122.82,80.28,165,72,207.71,60.15,255.9,72.66,287.33,104.56Z" transform="translate(-12.49 -27.53)"/><path class="cls-1" d="M309.69,158.48a76,76,0,0,1-22.33,53.88L179.61,320.11c-26,26.38-69,29.89-99,7.54l214.3-214.3A76.16,76.16,0,0,1,309.69,158.48Z" transform="translate(-12.49 -27.53)"/><path class="cls-5" d="M96.28,133.06" transform="translate(-12.49 -27.53)"/></svg>